<svg xmlns="http://www.w3.org/2000/svg" viewBox="0 0 1000 1000">
  <title>Ge</title>
  <defs>
    <clipPath id="c">
      <rect width="1000" height="1000" rx="221" ry="221"/>
    </clipPath>
  </defs>
  <rect width="1000" height="1000" rx="221" ry="221" fill="#000000"/>
  <g clip-path="url(#c)" fill="#ffffff">
    <path transform="translate(14 889) scale(1 -1)" d="M405 722Q473 722 516.0 703.0Q559 684 593 657Q605 648 613 648Q632 648 638 708H661Q659 669 658.0 613.5Q657 558 657 466H634Q627 526 612.5 570.5Q598 615 559 647Q535 670 499.5 683.0Q464 696 428 696Q373 696 334.0 667.5Q295 639 270.0 590.0Q245 541 233.0 479.5Q221 418 221 352Q221 172 270.5 89.0Q320 6 413 6Q437 6 455.0 12.0Q473 18 484 26Q498 36 503.0 47.5Q508 59 508 78V176Q508 222 500.5 244.5Q493 267 471.0 275.0Q449 283 407 284V304Q428 303 457.5 302.5Q487 302 519.0 301.5Q551 301 578 301Q620 301 655.0 302.0Q690 303 712 304V284Q693 283 683.5 277.0Q674 271 670.5 253.0Q667 235 667 198V0H647Q646 17 639.5 37.0Q633 57 618 57Q611 57 599.5 53.5Q588 50 564 36Q527 15 486.0 0.5Q445 -14 400 -14Q284 -14 204.0 29.0Q124 72 83.5 152.5Q43 233 43 346Q43 460 89.5 544.0Q136 628 217.5 675.0Q299 722 405 722Z"/>
    <path transform="translate(734 889) scale(1 -1)" d="M282 531Q370 531 420.0 479.0Q470 427 470 309H141L139 328H344Q345 377 338.0 418.5Q331 460 316.0 485.0Q301 510 276 510Q241 510 216.5 466.0Q192 422 187 320L190 314Q189 302 188.5 289.0Q188 276 188 262Q188 193 207.5 150.0Q227 107 257.0 87.5Q287 68 318 68Q339 68 361.5 74.5Q384 81 407.0 98.5Q430 116 450 148L468 142Q456 104 430.0 68.0Q404 32 364.0 9.0Q324 -14 268 -14Q200 -14 148.0 15.0Q96 44 66.5 103.0Q37 162 37 253Q37 346 68.5 408.0Q100 470 155.5 500.5Q211 531 282 531Z"/>
  </g>
</svg>
